#!OML:ASF H:\Terrain\Patient Classification 1\Walking\steve\steve.ASF
:FULLY-SPECIFIED
:DEGREES
1
root 6.82042 15.2423 -38.2013 8.10304 -9.01393 0.735579
lowerback -0.149228 2.86014 -2.09864
upperback -3.48164 3.73601 -1.52015
thorax -3.53043 1.90113 -0.502378
lowerneck -9.49821 -1.19278 -0.71609
upperneck 14.0907 -1.70737 1.28886
head 5.84065 -0.772289 0.390596
rclavicle -5.04789e-014 2.66371e-014
rhumerus -46.0145 -4.62872 -86.9079
rradius 29.1726
rwrist -2.11127
rhand -17.4184 -37.1044
rfingers 7.12502
rthumb 8.83157 -66.8996
lclavicle -5.04789e-014 2.66371e-014
lhumerus -32.9923 23.7654 75.4835
lradius 17.6921
lwrist 4.18926
lhand -23.5206 -10.488
lfingers 7.12502
lthumb 2.94036 19.4714
rfemur -27.5894 2.72832 20.1628
rtibia 68.6454
rfoot -12.5315 -0.324974
rtoes -23.9154
lfemur -23.6962 0.499175 -25.6042
ltibia 36.8006
lfoot -20.6635 -1.48788
ltoes 10.4363
2
root 6.82171 15.2749 -37.957 7.66233 -9.03967 1.37844
lowerback -0.117346 2.71924 -2.8179
upperback -3.33304 3.53646 -1.5152
thorax -3.43873 1.82099 -0.0890076
lowerneck -8.55138 -1.16775 -1.06705
upperneck 13.2363 -1.65373 1.54947
head 5.4159 -0.753095 0.54067
rclavicle 4.31425e-014 -1.74931e-014
rhumerus -46.9726 -4.99126 -86.4228
rradius 28.2953
rwrist -1.56163
rhand -17.7806 -37.8922
rfingers 7.12502
rthumb 8.48205 -67.7018
lclavicle 4.31425e-014 -1.74931e-014
lhumerus -30.7193 19.0636 78.8698
lradius 19.2159
lwrist 7.99122
lhand -23.8102 -10.0844
lfingers 7.12502
lthumb 2.66063 19.8788
rfemur -28.731 2.5845 19.7327
rtibia 67.7589
rfoot -13.3175 -0.545434
rtoes -22.5695
lfemur -22.1245 0.7659 -26.5983
ltibia 36.1933
lfoot -21.3649 1.51254
ltoes -5.71786
3
root 6.83676 15.2882 -37.7129 7.18838 -9.25789 1.16344
lowerback -0.0612236 2.70889 -2.42481
upperback -3.07346 3.53789 -1.37712
thorax -3.18495 1.80963 -0.158758
lowerneck -10.4856 -0.848775 -1.99262
upperneck 15.5081 -1.25189 2.58844
head 6.47045 -0.510144 1.04744
rclavicle -1.65923e-014 1.47101e-014
rhumerus -47.7154 -6.12318 -85.2827
rradius 26.996
rwrist 0.465706
rhand -17.0838 -37.0656
rfingers 7.12502
rthumb 9.15446 -66.8469
lclavicle -1.65923e-014 1.47101e-014
lhumerus -28.6111 14.8867 81.5177
lradius 20.4203
lwrist 10.7965
lhand -24.4153 -10.6653
lfingers 7.12502
lthumb 2.07624 19.3044
rfemur -29.7057 2.87066 20.1516
rtibia 66.9915
rfoot -14.6657 0.0249154
rtoes -19.1882
lfemur -20.4409 0.627943 -26.5583
ltibia 35.8599
lfoot -22.1174 2.05182
ltoes -7.74594
4
root 6.83615 15.283 -37.5267 7.14526 -8.62383 1.30818
lowerback 0.417632 2.38926 -2.59687
upperback -3.15836 3.09115 -1.28904
thorax -3.54991 1.59543 0.0152253
lowerneck -12.1994 -0.639125 -1.11968
upperneck 17.6204 -0.971188 1.63749
head 7.43831 -0.38795 0.6239
rclavicle 7.87063e-015 4.37326e-015
rhumerus -48.616 -7.24049 -84.0576
rradius 25.7877
rwrist 2.34268
rhand -16.5989 -36.6207
rfingers 7.12502
rthumb 9.62231 -66.3809
lclavicle 7.87063e-015 4.37326e-015
lhumerus -26.7733 11.3978 83.5782
lradius 21.4307
lwrist 12.5938
lhand -25.7627 -10.9476
lfingers 7.12502
lthumb 0.774911 19.0307
rfemur -31.3446 2.66896 20.2844
rtibia 66.3102
rfoot -16.2275 1.26668
rtoes -14.9338
lfemur -19.4786 0.224093 -26.7189
ltibia 35.5233
lfoot -21.9264 -0.0598824
ltoes 1.13021
5
root 6.83325 15.2814 -37.3249 7.29502 -8.25964 1.55751
lowerback 0.611408 2.1845 -3.03345
upperback -3.38047 2.79677 -1.19027
thorax -3.91143 1.46791 0.355572
lowerneck -10.8128 -0.450636 -1.91995
upperneck 16.4848 -0.774051 2.80944
head 6.82875 -0.2517 1.15244
rclavicle 2.60719e-014 -1.13307e-014
rhumerus -49.7426 -8.47015 -82.5116
rradius 24.6115
rwrist 4.64583
rhand -16.3664 -36.7212
rfingers 7.12502
rthumb 9.84668 -66.4709
lclavicle 2.60719e-014 -1.13307e-014
lhumerus -25.1691 9.41225 84.8077
lradius 22.4038
lwrist 13.4283
lhand -26.051 -10.451
lfingers 7.12502
lthumb 0.496449 19.5282
rfemur -33.0834 2.70814 20.2449
rtibia 65.4522
rfoot -17.5227 1.94975
rtoes -15.2357
lfemur -18.6943 0.124862 -27.0525
ltibia 35.1769
lfoot -21.8573 -1.49397
ltoes 6.93397
6
root 6.8333 15.2736 -37.1088 7.46846 -7.85511 1.27282
lowerback 0.600016 1.98162 -2.93776
upperback -3.49636 2.53533 -0.918475
thorax -4.02523 1.34169 0.590742
lowerneck -10.413 -0.379257 -1.9058
upperneck 16.2244 -0.655996 2.67541
head 6.67164 -0.208963 1.11586
rclavicle 1.15575e-014 2.04748e-014
rhumerus -50.7753 -9.71282 -80.8455
rradius 23.4752
rwrist 7.05096
rhand -16.0293 -36.669
rfingers 7.12502
rthumb 10.1719 -66.4031
lclavicle 1.15575e-014 2.04748e-014
lhumerus -23.6696 7.28811 85.7608
lradius 23.8868
lwrist 14.975
lhand -25.405 -9.82631
lfingers 7.12502
lthumb 1.12039 20.1505
rfemur -34.6394 2.6751 20.9016
rtibia 64.2857
rfoot -18.405 1.32998
rtoes -19.5122
lfemur -17.7386 0.191669 -26.841
ltibia 34.6047
lfoot -22.0419 -2.10016
ltoes 7.30001
7
root 6.83635 15.261 -36.8867 7.31962 -7.45618 1.34139
lowerback 0.523954 1.70125 -3.05575
upperback -3.2987 2.17059 -0.749361
thorax -3.77561 1.16233 0.85383
lowerneck -11.2141 -0.381573 -1.27448
upperneck 16.9314 -0.571289 1.54295
head 7.03388 -0.220932 0.656718
rclavicle 1.63997e-014 -2.64384e-014
rhumerus -51.3709 -10.6065 -79.4405
rradius 22.3818
rwrist 9.02459
rhand -15.4878 -36.236
rfingers 7.12502
rthumb 10.6943 -65.9438
lclavicle 1.63997e-014 -2.64384e-014
lhumerus -22.1277 4.07914 86.7018
lradius 25.7918
lwrist 17.5409
lhand -25.3871 -9.17439
lfingers 7.12502
lthumb 1.13766 20.8023
rfemur -35.8094 2.35896 21.1936
rtibia 62.8669
rfoot -18.796 0.677032
rtoes -22.8236
lfemur -16.2731 0.229965 -27.0244
ltibia 33.745
lfoot -22.1624 -3.045
ltoes 9.42824
8
root 6.83261 15.2577 -36.6693 7.12247 -7.13717 1.93812
lowerback 0.361657 1.44655 -3.78806
upperback -2.98552 1.8287 -0.716421
thorax -3.37281 1.0049 1.32096
lowerneck -10.5357 -0.278632 -2.24643
upperneck 15.9091 -0.432834 2.5677
head 6.5872 -0.13083 1.15559
rclavicle 1.68501e-014 -9.44227e-015
rhumerus -51.6494 -11.7777 -77.7717
rradius 21.0962
rwrist 11.515
rhand -15.1571 -36.1139
rfingers 7.12502
rthumb 11.0132 -65.805
lclavicle 1.68501e-014 -9.44227e-015
lhumerus -20.1872 1.45203 87.3655
lradius 27.0522
lwrist 19.1947
lhand -25.5325 -8.82235
lfingers 7.12502
lthumb 0.997225 21.1551
rfemur -36.9472 2.07494 20.8349
rtibia 61.2797
rfoot -19.1462 0.748945
rtoes -25.1161
lfemur -14.6795 0.283486 -27.7414
ltibia 32.6522
lfoot -22.2216 -3.6901
ltoes 10.4975
9
root 6.82181 15.2678 -36.4537 7.19175 -6.71798 2.25616
lowerback 0.231096 1.20401 -4.33741
upperback -2.91809 1.50513 -0.601603
thorax -3.23243 0.856871 1.76183
lowerneck -10.6092 -0.172368 -2.09806
upperneck 16.0691 -0.278327 2.35566
head 6.64699 -0.0646826 1.07749
rclavicle 9.49818e-015 4.37326e-015
rhumerus -52.412 -13.4135 -75.5648
rradius 19.8708
rwrist 14.3421
rhand -15.3115 -36.195
rfingers 7.12502
rthumb 10.8643 -65.8939
lclavicle 9.49818e-015 4.37326e-015
lhumerus -18.4193 -0.547564 87.8004
lradius 28.0112
lwrist 20.2994
lhand -25.3119 -9.3874
lfingers 7.12502
lthumb 1.21037 20.5889
rfemur -38.2204 2.04572 20.694
rtibia 59.5217
rfoot -19.4668 1.07392
rtoes -24.1095
lfemur -13.2792 0.485378 -28.0799
ltibia 31.3527
lfoot -21.8639 -4.51344
ltoes 11.4651
10
root 6.81894 15.2869 -36.2311 7.2213 -6.2495 2.01292
lowerback 0.359812 0.981017 -4.15267
upperback -2.99015 1.20907 -0.37435
thorax -3.3613 0.711215 1.89958
lowerneck -10.7176 -0.116157 -1.95702
upperneck 16.4927 -0.174528 2.03714
head 6.79938 -0.0326943 0.963363
rclavicle -1.16483e-014 6.85807e-015
rhumerus -53.7454 -14.8133 -73.2958
rradius 19.0327
rwrist 16.6806
rhand -15.536 -35.5115
rfingers 7.12502
rthumb 10.6477 -65.2218
lclavicle -1.16483e-014 6.85807e-015
lhumerus -16.8971 -2.21327 88.0403
lradius 28.8353
lwrist 21.411
lhand -25.0297 -10.9039
lfingers 7.12502
lthumb 1.48288 19.0707
rfemur -39.1797 2.11609 21.0512
rtibia 57.5922
rfoot -19.2931 1.22662
rtoes -17.6475
lfemur -11.7124 0.753277 -27.8175
ltibia 29.9504
lfoot -21.3955 -5.04648
ltoes 11.312
11
root 6.81894 15.3015 -36.0015 7.06975 -5.78622 2.06544
lowerback 0.532884 0.757552 -4.28485
upperback -2.9832 0.904332 -0.198336
thorax -3.43809 0.567043 2.16373
lowerneck -10.8183 -0.143851 -3.0666
upperneck 16.6713 -0.153169 2.82452
head 6.87411 -0.0237007 1.40459
rclavicle 2.49519e-015 1.80086e-014
rhumerus -55.1072 -15.647 -71.4507
rradius 18.5304
rwrist 18.3107
rhand -15.9861 -35.2798
rfingers 7.12502
rthumb 10.2135 -65.0119
lclavicle 2.49519e-015 1.80086e-014
lhumerus -15.5192 -3.87211 88.1256
lradius 30.0026
lwrist 22.765
lhand -24.8572 -11.1162
lfingers 7.12502
lthumb 1.64947 18.8572
rfemur -39.9462 1.98884 21.1006
rtibia 55.7424
rfoot -19.4716 1.40012
rtoes -12.9885
lfemur -10.2336 0.824804 -27.8699
ltibia 29.1361
lfoot -21.4649 -5.01252
ltoes 8.92102
